<svg xmlns="http://www.w3.org/2000/svg" xmlns:xlink="http://www.w3.org/1999/xlink" width="1920" zoomAndPan="magnify" viewBox="0 0 1440 809.999993" height="1080" preserveAspectRatio="xMidYMid meet" version="1.0"><defs><clipPath id="acb58d808e"><path d="M 690 292.492188 L 834.863281 292.492188 L 834.863281 462 L 690 462 Z M 690 292.492188 " clip-rule="nonzero"/></clipPath><clipPath id="84d1d41f91"><path d="M 604.613281 377 L 718 377 L 718 517.492188 L 604.613281 517.492188 Z M 604.613281 377 " clip-rule="nonzero"/></clipPath></defs><rect x="-144" width="1728" fill="#ffffff" y="-80.999999" height="971.999992" fill-opacity="1"/><g clip-path="url(#acb58d808e)"><path fill="#ffc099" d="M 702.179688 371.457031 C 695.460938 383.515625 691.855469 395.15625 690.941406 405.863281 C 696.046875 410.140625 700.851562 414.964844 705.199219 420.359375 C 715.660156 401.867188 734.449219 378.285156 766.625 363.613281 C 766.625 363.613281 732.296875 383.003906 715.585938 436.292969 C 719.316406 443.605469 721.6875 450.921875 722.671875 457.980469 C 723.292969 458.320312 723.886719 458.613281 724.40625 458.800781 C 757.28125 470.398438 793.84375 439.746094 798.082031 393.992188 C 805.539062 313.496094 834.953125 292.578125 834.953125 292.578125 C 834.953125 292.578125 739.515625 304.417969 702.179688 371.457031 Z M 702.179688 371.457031 " fill-opacity="1" fill-rule="nonzero"/></g><g clip-path="url(#84d1d41f91)"><path fill="#ffc099" d="M 708.003906 433.644531 C 677.726562 383.488281 604.59375 377.003906 604.59375 377.003906 C 604.59375 377.003906 623.613281 383.90625 631.628906 450.933594 C 635.800781 485.761719 666.976562 504.261719 693.371094 500.871094 C 697.933594 500.285156 701.867188 499.5 705.535156 502.078125 C 707.171875 503.230469 711.222656 511.664062 712.980469 517.035156 L 713.9375 514.683594 C 714.773438 512.636719 714.933594 510.355469 714.3125 508.234375 C 700.496094 461.484375 658.621094 429.375 658.621094 429.375 C 692.042969 443.226562 707.5625 469.929688 713.546875 483.445312 C 720.46875 470.367188 719.398438 452.515625 708.003906 433.644531 Z M 708.003906 433.644531 " fill-opacity="1" fill-rule="nonzero"/></g></svg>