<svg xmlns="http://www.w3.org/2000/svg" xmlns:xlink="http://www.w3.org/1999/xlink" width="1920" zoomAndPan="magnify" viewBox="0 0 1440 809.999993" height="1080" preserveAspectRatio="xMidYMid meet" version="1.0"><defs><clipPath id="a8c080a623"><path d="M 604.613281 301.15625 L 834.863281 301.15625 L 834.863281 522 L 604.613281 522 Z M 604.613281 301.15625 " clip-rule="nonzero"/></clipPath></defs><g clip-path="url(#a8c080a623)"><path fill="#ffc099" d="M 724.957031 513.820312 C 724.289062 514.632812 723.644531 515.464844 722.953125 516.25 C 721.761719 517.601562 720.621094 519.015625 719.300781 520.230469 C 717.621094 521.777344 715.636719 522.355469 713.453125 521.238281 C 711.289062 520.128906 710.109375 518.476562 710.175781 515.902344 C 710.238281 513.570312 711.265625 511.613281 712.144531 509.582031 C 713.507812 506.457031 713.570312 506.417969 710.996094 504.265625 C 704.566406 498.890625 698.003906 493.679688 691.671875 488.195312 C 680.527344 478.527344 670.039062 468.171875 660.386719 457.007812 C 651.164062 446.339844 641.996094 435.621094 633.03125 424.734375 C 626.832031 417.210938 621.191406 409.242188 616.71875 400.535156 C 611.171875 389.734375 607.144531 378.453125 605.714844 366.277344 C 605.007812 360.238281 604.691406 354.214844 605.273438 348.203125 C 606.265625 338.007812 610.15625 329.167969 618.5 322.742188 C 621.894531 320.128906 625.707031 318.269531 629.902344 317.351562 C 631.367188 317.027344 632.3125 316.410156 633.167969 315.167969 C 636.347656 310.535156 640.421875 306.914062 645.625 304.625 C 652.730469 301.492188 659.925781 301.160156 667.316406 303.554688 C 679.011719 307.34375 688.339844 314.40625 695.714844 324.09375 C 703.855469 334.785156 710.160156 346.503906 714.730469 359.148438 C 715.945312 362.507812 717.140625 365.878906 718.585938 369.917969 C 720.5 366.390625 722.15625 363.398438 723.753906 360.378906 C 728.457031 351.472656 733.140625 342.554688 739.460938 334.636719 C 746.957031 325.253906 755.699219 317.28125 766.433594 311.789062 C 775.253906 307.277344 784.636719 304.6875 794.648438 306.226562 C 807.683594 308.230469 816.964844 315.527344 822.53125 327.359375 C 824.179688 330.863281 825.261719 334.730469 825.972656 338.546875 C 826.582031 341.828125 827.546875 344.832031 829.132812 347.742188 C 834.050781 356.789062 834.964844 366.433594 833.125 376.433594 C 830.257812 392.035156 823.625 406.027344 814.625 418.9375 C 805.828125 431.5625 795.921875 443.328125 785.960938 455.042969 C 780.050781 461.984375 774.152344 468.933594 768.113281 475.765625 C 760.179688 484.746094 752.097656 493.597656 744.121094 502.546875 C 742.296875 504.597656 740.703125 506.851562 738.910156 508.9375 C 736.03125 512.289062 732.59375 514.566406 727.910156 514.160156 C 727.070312 514.089844 726.234375 513.96875 724.957031 513.820312 Z M 765.160156 462.976562 C 765.371094 462.792969 765.578125 462.609375 765.789062 462.425781 C 766.023438 462.238281 766.257812 462.054688 766.492188 461.867188 C 767.523438 460.972656 768.632812 460.15625 769.574219 459.171875 C 773.746094 454.796875 777.929688 450.429688 781.992188 445.957031 C 792.417969 434.484375 801.996094 422.355469 809.960938 409.011719 C 816.019531 398.863281 821.09375 388.292969 823.511719 376.636719 C 824.308594 372.796875 825.355469 368.941406 824.933594 364.484375 C 824.582031 365.175781 824.410156 365.4375 824.3125 365.726562 C 824.109375 366.324219 823.929688 366.933594 823.761719 367.542969 C 820.40625 379.554688 815.457031 390.921875 809.039062 401.5625 C 803.910156 410.070312 798.273438 418.289062 792.488281 426.371094 C 785.023438 436.796875 777.171875 446.941406 769.523438 457.238281 C 768.421875 458.722656 767.546875 460.371094 766.5625 461.941406 C 766.328125 462.125 766.09375 462.308594 765.859375 462.488281 C 765.621094 462.679688 765.378906 462.871094 765.136719 463.058594 C 765.105469 463.089844 765.074219 463.121094 765.042969 463.15625 C 765.078125 463.097656 765.121094 463.039062 765.160156 462.976562 Z M 656.816406 438.914062 L 656.941406 439.019531 L 656.75 438.949219 C 656.53125 438.761719 656.3125 438.574219 656.09375 438.386719 C 656.023438 437.992188 656.0625 437.53125 655.867188 437.214844 C 650.933594 429.183594 645.878906 421.230469 641.042969 413.148438 C 634.144531 401.617188 629.054688 389.304688 626.359375 376.125 C 625.15625 370.230469 624.632812 364.183594 624.03125 358.183594 C 623.308594 350.984375 623.675781 343.78125 624.78125 336.640625 C 625.296875 333.3125 626.136719 330.042969 626.828125 326.742188 L 626.976562 326.65625 L 626.878906 326.78125 C 622.511719 329.363281 620.292969 333.582031 618.765625 338.113281 C 615.800781 346.882812 616.195312 355.890625 617.753906 364.839844 C 619.753906 376.285156 623.828125 387.042969 629.027344 397.410156 C 633.828125 406.992188 639.402344 416.113281 645.628906 424.816406 C 648.945312 429.449219 652.648438 433.816406 656.175781 438.300781 C 656.394531 438.5 656.605469 438.707031 656.816406 438.914062 Z M 695.867188 349.558594 C 695.878906 349.820312 695.890625 350.082031 695.898438 350.339844 C 695.976562 350.328125 696.050781 350.3125 696.125 350.300781 C 696.007812 350.078125 695.894531 349.855469 695.777344 349.632812 C 693.832031 346.246094 692.066406 342.734375 689.898438 339.5 C 686.070312 333.78125 682.097656 328.171875 676.53125 323.894531 C 671.667969 320.15625 666.382812 317.382812 660.355469 316.199219 C 657.21875 315.585938 654.085938 315.714844 650.714844 317.507812 C 651.988281 317.964844 652.855469 318.234375 653.691406 318.582031 C 657.691406 320.234375 661.808594 321.671875 665.660156 323.625 C 676.328125 329.035156 684.898438 337 692.421875 346.183594 C 693.4375 347.425781 694.710938 348.445312 695.867188 349.558594 Z M 644.082031 323.339844 C 641.597656 326.699219 640.121094 330.433594 639.035156 334.304688 C 636.449219 343.554688 636.613281 352.953125 637.613281 362.410156 C 639.125 376.742188 643.726562 390.105469 650.414062 402.738281 C 657.113281 415.386719 665.054688 427.300781 673.175781 439.0625 C 685.304688 456.628906 698.632812 473.238281 713.285156 488.769531 C 714.882812 490.457031 716.496094 492.164062 718.289062 493.636719 C 720.621094 495.546875 721.589844 495.363281 723.628906 493.082031 C 724.121094 492.527344 724.570312 491.9375 725.035156 491.355469 C 728.808594 486.636719 732.5625 481.90625 736.347656 477.207031 C 743.796875 467.957031 751.292969 458.75 758.714844 449.484375 C 767.257812 438.8125 775.628906 428.003906 783.328125 416.691406 C 790.242188 406.527344 797.042969 396.296875 802.457031 385.21875 C 806.933594 376.0625 810.640625 366.632812 812.710938 356.617188 C 813.925781 350.730469 814.042969 344.863281 812.621094 338.972656 C 812.261719 337.496094 811.535156 336.578125 810.269531 335.808594 C 804.894531 332.527344 799.003906 331 792.792969 330.621094 C 785.269531 330.160156 778.023438 331.546875 770.960938 334.09375 C 761.71875 337.425781 753.863281 342.941406 746.757812 349.574219 C 744.683594 351.511719 742.664062 353.664062 741.203125 356.074219 C 738.746094 360.140625 736.671875 364.457031 734.589844 368.738281 C 731.488281 375.121094 728.769531 381.652344 726.65625 388.445312 C 725.789062 391.242188 724.613281 394.050781 723.023438 396.5 C 720.636719 400.183594 715.136719 400.636719 712.574219 397.464844 C 710.667969 395.109375 709.070312 392.476562 707.5625 389.835938 C 705.042969 385.421875 702.875 380.800781 700.261719 376.449219 C 693.265625 364.808594 685.746094 353.535156 676.277344 343.6875 C 669.777344 336.925781 662.707031 330.882812 654.277344 326.652344 C 651.105469 325.054688 647.785156 323.613281 644.082031 323.339844 Z M 805.167969 326.339844 C 801.117188 322.246094 796.179688 319.933594 790.359375 319.714844 C 784.398438 319.488281 778.890625 321.328125 773.523438 323.683594 C 772.726562 324.035156 772 324.546875 771.242188 324.984375 C 782.679688 322.683594 793.917969 322.425781 805.167969 326.339844 Z M 805.167969 326.339844 " fill-opacity="1" fill-rule="nonzero"/></g></svg>