<svg xmlns="http://www.w3.org/2000/svg" xmlns:xlink="http://www.w3.org/1999/xlink" width="1920" zoomAndPan="magnify" viewBox="0 0 1440 809.999993" height="1080" preserveAspectRatio="xMidYMid meet" version="1.0"><defs><clipPath id="55a61396aa"><path d="M 561.15625 283 L 878.40625 283 L 878.40625 526.597656 L 561.15625 526.597656 Z M 561.15625 283 " clip-rule="nonzero"/></clipPath></defs><g clip-path="url(#55a61396aa)"><path fill="#ffc099" d="M 876.035156 298.78125 C 874.476562 297.445312 872.417969 296.882812 870.390625 297.148438 L 850.28125 300.15625 L 850.28125 290.210938 C 850.28125 288.125 849.363281 286.152344 847.765625 284.808594 C 846.167969 283.476562 844.0625 282.894531 842.011719 283.277344 L 781.785156 293.933594 C 753.539062 298.957031 730.757812 317.714844 719.820312 342.605469 C 708.878906 317.714844 686.101562 298.957031 657.84375 293.933594 L 597.628906 283.277344 C 595.570312 282.882812 593.472656 283.476562 591.875 284.808594 C 590.277344 286.152344 589.359375 288.125 589.359375 290.210938 L 589.359375 300.15625 L 569.246094 297.148438 C 567.226562 296.882812 565.160156 297.445312 563.601562 298.78125 C 562.054688 300.121094 561.15625 302.070312 561.15625 304.121094 L 561.15625 478.882812 C 561.15625 482.402344 563.753906 485.378906 567.234375 485.863281 L 667.25 499.730469 C 686.660156 502.414062 703.808594 511.289062 714.304688 524.070312 C 714.324219 524.097656 714.34375 524.125 714.367188 524.144531 C 714.453125 524.253906 714.539062 524.351562 714.628906 524.453125 C 714.722656 524.550781 714.816406 524.644531 714.910156 524.734375 C 715.011719 524.839844 715.113281 524.9375 715.222656 525.023438 C 715.304688 525.089844 715.382812 525.160156 715.46875 525.222656 C 715.652344 525.375 715.847656 525.511719 716.054688 525.640625 C 716.105469 525.671875 716.160156 525.707031 716.214844 525.738281 C 716.367188 525.832031 716.527344 525.921875 716.691406 526 C 716.773438 526.039062 716.855469 526.082031 716.941406 526.117188 C 717.109375 526.191406 717.277344 526.261719 717.457031 526.324219 C 717.675781 526.402344 717.902344 526.476562 718.132812 526.527344 C 718.199219 526.546875 718.265625 526.5625 718.335938 526.578125 C 718.445312 526.605469 718.554688 526.621094 718.667969 526.640625 C 718.785156 526.660156 718.90625 526.679688 719.027344 526.6875 C 719.175781 526.710938 719.328125 526.71875 719.480469 526.726562 C 719.589844 526.734375 719.703125 526.738281 719.820312 526.738281 C 719.9375 526.738281 720.050781 526.734375 720.160156 526.726562 C 720.3125 526.71875 720.464844 526.710938 720.613281 526.6875 C 720.734375 526.679688 720.855469 526.660156 720.972656 526.640625 C 721.085938 526.621094 721.195312 526.597656 721.304688 526.578125 C 721.375 526.5625 721.441406 526.546875 721.507812 526.527344 C 721.914062 526.429688 722.3125 526.292969 722.699219 526.117188 C 722.785156 526.082031 722.867188 526.039062 722.949219 526 C 723.113281 525.921875 723.273438 525.832031 723.425781 525.738281 C 723.480469 525.707031 723.535156 525.671875 723.585938 525.640625 C 723.859375 525.472656 724.113281 525.285156 724.359375 525.074219 C 724.414062 525.03125 724.464844 524.988281 724.515625 524.941406 C 724.785156 524.699219 725.042969 524.433594 725.277344 524.144531 C 735.761719 511.324219 752.933594 502.417969 772.390625 499.730469 L 872.402344 485.863281 C 875.886719 485.378906 878.480469 482.402344 878.480469 478.882812 L 878.480469 304.121094 C 878.480469 302.070312 877.585938 300.121094 876.035156 298.78125 Z M 603.453125 302.265625 L 603.453125 298.609375 L 655.382812 307.800781 C 672.050781 310.769531 686.425781 319.480469 696.617188 331.679688 C 706.769531 343.824219 712.773438 359.429688 712.773438 376.269531 L 712.773438 479.992188 C 703.257812 472.265625 691.5625 466.980469 678.953125 464.925781 L 603.453125 452.535156 Z M 743.039062 331.664062 C 753.226562 319.46875 767.59375 310.765625 784.25 307.800781 L 836.1875 298.609375 L 836.1875 452.535156 L 760.6875 464.917969 C 748.074219 466.988281 736.382812 472.265625 726.867188 479.992188 L 726.867188 376.269531 C 726.867188 359.421875 732.878906 343.8125 743.03125 331.667969 C 743.03125 331.667969 743.03125 331.664062 743.039062 331.664062 Z M 669.179688 485.777344 L 575.246094 472.746094 L 575.246094 312.300781 L 589.359375 314.414062 L 589.359375 458.519531 C 589.359375 461.972656 591.859375 464.90625 595.261719 465.46875 L 676.675781 478.828125 C 691.308594 481.222656 704.351562 488.933594 712.773438 500.105469 L 712.773438 503.269531 C 700.816406 494.226562 685.640625 488.050781 669.179688 485.777344 Z M 864.386719 472.746094 L 770.460938 485.777344 C 753.996094 488.050781 738.824219 494.222656 726.867188 503.269531 L 726.867188 500.105469 C 735.289062 488.933594 748.332031 481.222656 762.960938 478.820312 L 844.378906 465.46875 C 847.78125 464.90625 850.28125 461.972656 850.28125 458.519531 L 850.28125 314.414062 L 864.386719 312.300781 Z M 864.386719 472.746094 " fill-opacity="1" fill-rule="nonzero"/></g></svg>